<svg width="24" height="24" viewBox="0 0 24 24" fill="none" xmlns="http://www.w3.org/2000/svg">
<path d="M9.47947 16.3279L6.26214 13.1105C5.91262 12.761 5.91262 12.1964 6.26214 11.8469C6.61165 11.4974 7.17625 11.4974 7.52577 11.8469L10.1158 14.4279L16.2816 8.26214C16.6311 7.91262 17.1957 7.91262 17.5452 8.26214C17.8947 8.61165 17.8947 9.17625 17.5452 9.52577L10.7431 16.3279C10.4025 16.6774 9.82898 16.6774 9.47947 16.3279Z" fill="white"/>
<path fill-rule="evenodd" clip-rule="evenodd" d="M22.3182 6.72118L22.0649 9.14791C22.0541 9.25017 22.0816 9.35283 22.1421 9.43614L23.5748 11.4133C23.8285 11.7634 23.8285 12.2368 23.5748 12.5869L22.1421 14.5641C22.0816 14.6474 22.0541 14.75 22.0649 14.8523L22.3182 17.2789C22.3632 17.7096 22.1259 18.1203 21.7303 18.2963L19.5005 19.2889C19.406 19.3306 19.3304 19.406 19.2884 19.5005L18.2967 21.73C18.1206 22.1257 17.7098 22.3631 17.2791 22.3181L14.8519 22.0645C14.7496 22.0539 14.6472 22.0816 14.564 22.1421L12.5867 23.5749C12.2367 23.8285 11.7634 23.8286 11.4134 23.5751L9.43451 22.1421C9.36341 22.0901 9.27786 22.0622 9.18986 22.0622C9.18359 22.0622 9.17688 22.0627 9.17002 22.0633C9.16284 22.0639 9.1555 22.0645 9.14831 22.0645L6.72092 22.3181C6.29014 22.3632 5.87934 22.1257 5.7033 21.73L4.71154 19.5005C4.66958 19.406 4.59401 19.3304 4.4997 19.2884L2.27002 18.2963C1.87437 18.1202 1.637 17.7095 1.68197 17.2788L1.93533 14.8523C1.94592 14.75 1.91843 14.6474 1.85813 14.5641L0.425266 12.5869C0.171558 12.2368 0.171559 11.7634 0.425266 11.4133L1.85813 9.43614C1.91843 9.35283 1.94592 9.25017 1.93533 9.14791L1.68196 6.72109C1.637 6.29042 1.87431 5.87975 2.2699 5.70366L4.4997 4.71114C4.59421 4.66959 4.66979 4.59402 4.71154 4.4997L5.7033 2.27021C5.87934 1.87447 6.29014 1.63705 6.72092 1.68207L9.14831 1.93575C9.25036 1.94593 9.35282 1.91823 9.43614 1.85814L11.4133 0.425273C11.7634 0.171566 12.2368 0.171566 12.5869 0.425273L14.564 1.85814C14.6472 1.91823 14.7496 1.94593 14.8519 1.93575L17.2791 1.68207C17.7098 1.63705 18.1206 1.87448 18.2967 2.27022L19.2884 4.4997C19.3304 4.59402 19.406 4.66959 19.5005 4.71155L21.7302 5.70371C22.1258 5.87976 22.3632 6.29047 22.3182 6.72118Z" fill="#28B7ED"/>
<path d="M9.47947 16.3279L6.26214 13.1105C5.91262 12.761 5.91262 12.1964 6.26214 11.8469C6.61165 11.4974 7.17625 11.4974 7.52577 11.8469L10.1158 14.4279L16.2816 8.26214C16.6311 7.91262 17.1957 7.91262 17.5452 8.26214C17.8947 8.61165 17.8947 9.17625 17.5452 9.52577L10.7431 16.3279C10.4025 16.6774 9.82898 16.6774 9.47947 16.3279Z" fill="white"/>
</svg>
